<svg xmlns="http://www.w3.org/2000/svg" xmlns:xlink="http://www.w3.org/1999/xlink" fill="none" version="1.1" width="22" height="22" viewBox="0 0 22 22"><defs><clipPath id="master_svg0_397_7638"><rect x="0" y="0" width="22" height="22" rx="0"/></clipPath></defs><g clip-path="url(#master_svg0_397_7638)"><g><path d="M19.4004,19.9697734375L2.84668,19.9697734375C2.414844,19.9697734375,2.0625,19.6173734375,2.0625,19.1833734375L2.0625,2.5673824375C2.0625,2.2708984375,2.303125,2.0302734375,2.599609,2.0302734375C2.8960939999999997,2.0302734375,3.13672,2.2708984375,3.13672,2.5673824375L3.13672,18.8954734375L19.4004,18.8954734375C19.6969,18.8954734375,19.9375,19.1361734375,19.9375,19.4325734375C19.9375,19.7290734375,19.6969,19.9697734375,19.4004,19.9697734375Z" fill="#888888" fill-opacity="1"/></g><g><path d="M5.177734375,11.5306912890625L6.251949375,11.5306912890625L6.251949375,17.1015712890625L5.177734375,17.1015712890625L5.177734375,11.5306912890625ZM8.974019375000001,9.850611289062499L10.048239375,9.850611289062499L10.048239375,17.1015712890625L8.974019375000001,17.1015712890625L8.974019375000001,9.850611289062499ZM12.768159375,11.5306912890625L13.842379375,11.5306912890625L13.842379375,17.1015712890625L12.768159375,17.1015712890625L12.768159375,11.5306912890625ZM16.564409375,8.830101289062501L17.638709374999998,8.830101289062501L17.638709374999998,17.1015712890625L16.564409375,17.1015712890625L16.564409375,8.830101289062501ZM5.304492375,10.0375212890625L4.662109375,9.1695512890625L9.365039375,5.7986572890625L13.356839375,8.2543212890625L17.284209375,5.0230712890625L17.982409375,5.8480712890625L13.449219375,9.5777612890625L9.412309375,7.0920212890625L5.304492375,10.0375212890625Z" fill="#888888" fill-opacity="1"/></g><g><path d="M15.365631103515625,3.9574463265625L19.546491103515624,3.8736572265625L18.603331103515625,7.8912372265625" fill="#888888" fill-opacity="1"/></g></g></svg>