<svg xmlns="http://www.w3.org/2000/svg" xmlns:xlink="http://www.w3.org/1999/xlink" fill="none" version="1.1" width="14.129165649414062" height="11.996302604675293" viewBox="0 0 14.129165649414062 11.996302604675293"><g><path d="M7.2902,0.0807857L3.64647,2.39378L1.8287,2.39378C0.818623,2.39378,0,3.193,0,4.19408L0,7.80187C0,8.79664,0.808609,9.60217,1.8287,9.60217L3.64647,9.60217L7.2902,11.9134C7.80526,12.1341,8.20455,11.898,8.20455,11.397L8.20455,0.597075C8.20455,0.0951918,7.79524,-0.134572,7.2902,0.0807857ZM10.3605,2.98757C10.1891,2.80555,9.90017,2.79563,9.71695,2.96593C9.53279,3.13623,9.52367,3.42097,9.69506,3.60297C9.77984,3.69307,9.92479,3.89222,10.0743,4.19316C10.3295,4.70677,10.4836,5.30956,10.4836,5.99797C10.4836,6.68639,10.3295,7.29007,10.0743,7.80278C9.92479,8.10371,9.77984,8.30286,9.69506,8.39297C9.52276,8.57498,9.53279,8.85971,9.71695,9.03001C9.90109,9.20031,10.1892,9.1904,10.3615,9.00838C10.5046,8.85701,10.7015,8.5867,10.8929,8.20014C11.2075,7.5676,11.3952,6.83054,11.3952,5.99708C11.3952,5.16361,11.2075,4.42654,10.8929,3.79401C10.7006,3.40925,10.5037,3.13802,10.3605,2.98757ZM13.1556,2.42982C12.7873,1.8135,12.4153,1.3864,12.1546,1.15663C11.9668,0.990857,11.6787,1.00707,11.511,1.19358C11.3433,1.3801,11.3596,1.66392,11.5484,1.82971C11.5912,1.86754,11.6769,1.95225,11.7918,2.0838C11.9887,2.30905,12.1856,2.57757,12.3706,2.88754C12.9003,3.77598,13.2184,4.81487,13.2184,5.99796C13.2184,7.18104,12.9003,8.21994,12.3697,9.10929C12.1847,9.41924,11.9868,9.68776,11.7909,9.91302C11.676,10.0446,11.5903,10.1293,11.5474,10.1671C11.3596,10.3329,11.3433,10.6176,11.5101,10.8033C11.6769,10.9889,11.9659,11.0051,12.1537,10.8402C12.4144,10.6104,12.7864,10.1842,13.1546,9.56701C13.7636,8.54613,14.1292,7.35224,14.1292,5.99796C14.1301,4.6446,13.7645,3.45071,13.1556,2.42982Z" fill="#597EF7" fill-opacity="1"/></g></svg>