<svg xmlns="http://www.w3.org/2000/svg" xmlns:xlink="http://www.w3.org/1999/xlink" fill="none" version="1.1" width="22" height="22" viewBox="0 0 22 22"><defs><clipPath id="master_svg0_452_6724"><rect x="0" y="0" width="22" height="22" rx="0"/></clipPath></defs><g clip-path="url(#master_svg0_452_6724)"><g><path d="M20.83136015625,10.793703671875L18.28756015625,8.387453671875L11.34386015625,1.924950671875C11.13756015625,1.718701171875,10.86260015625,1.718701171875,10.65635015625,1.924950671875L3.91885015625,8.318703671875C3.85010015625,8.387453671875,3.78135015625,8.456203671875,3.71260015625,8.524953671875L1.16884715625,10.931203671875C0.96259765625,11.137453671875,0.96259765625,11.412453671875,1.16884715625,11.618703671875C1.37509815625,11.824963671875,1.65009815625,11.824963671875,1.8563481562500002,11.618703671875L3.64385015625,9.899953671875L3.64385015625,18.356163671875C3.64385015625,19.387463671875,4.53760015625,20.281163671875,5.63760015625,20.281163671875L7.42510015625,20.281163671875C8.25010015625,20.281163671875,8.93760015625,19.662463671875,8.93760015625,18.837463671875L8.93760015625,14.162463671875L11.06886015625,14.162463671875L13.20006015625,14.162463671875L13.20006015625,18.837463671875C13.20006015625,19.593663671875,13.88756015625,20.281163671875,14.71256015625,20.281163671875L16.50006015625,20.281163671875C17.60006015625,20.281163671875,18.49386015625,19.456163671875,18.49386015625,18.356163671875L18.49386015625,9.831203671875L20.21256015625,11.412453671875C20.41886015625,11.618703671875,20.69386015625,11.618703671875,20.90006015625,11.412453671875C21.03756015625,11.274953671875,21.03756015625,10.999953671875,20.83136015625,10.793703671875ZM17.39386015625,18.424963671875C17.39386015625,18.974963671875,16.98136015625,19.387463671875,16.43136015625,19.387463671875L14.64386015625,19.387463671875C14.36886015625,19.387463671875,14.16256015625,19.181163671875,14.16256015625,18.906163671875L14.16256015625,13.749963671875C14.16256015625,13.474963671875,13.95636015625,13.268663671875,13.68136015625,13.268663671875L11.06886015625,13.268663671875L8.45635015625,13.268663671875C8.18135015625,13.268663671875,7.97510015625,13.474963671875,7.97510015625,13.749963671875L7.97510015625,18.906163671875C7.97510015625,19.181163671875,7.76885015625,19.387463671875,7.49385015625,19.387463671875L5.70635015625,19.387463671875C5.15635015625,19.387463671875,4.74385015625,18.974963671875,4.74385015625,18.424963671875L4.74385015625,9.006203671875L11.06886015625,2.956203671875L17.39386015625,9.006203671875L17.39386015625,18.424963671875Z" fill="#888888" fill-opacity="1"/></g></g></svg>