<svg xmlns="http://www.w3.org/2000/svg" xmlns:xlink="http://www.w3.org/1999/xlink" fill="none" version="1.1" width="22" height="22" viewBox="0 0 22 22"><defs><clipPath id="master_svg0_397_8087/10_335"><rect x="0" y="0" width="22" height="22" rx="0"/></clipPath></defs><g clip-path="url(#master_svg0_397_8087/10_335)"><g><path d="M7.79164298828125,11.4583740234375C9.31042298828125,11.4583740234375,10.54164298828125,12.6895740234375,10.54164298828125,14.2083740234375C10.54164298828125,14.2083740234375,10.54164298828125,17.4166740234375,10.54164298828125,17.4166740234375C10.54164298828125,18.9355740234375,9.31042298828125,20.1666740234375,7.79164298828125,20.1666740234375C7.79164298828125,20.1666740234375,4.58331298828125,20.1666740234375,4.58331298828125,20.1666740234375C3.06453298828125,20.1666740234375,1.83331298828125,18.9355740234375,1.83331298828125,17.4166740234375C1.83331298828125,17.4166740234375,1.83331298828125,14.2083740234375,1.83331298828125,14.2083740234375C1.83331298828125,12.6895740234375,3.06453298828125,11.4583740234375,4.58331298828125,11.4583740234375C4.58331298828125,11.4583740234375,7.79164298828125,11.4583740234375,7.79164298828125,11.4583740234375C7.79164298828125,11.4583740234375,7.79164298828125,11.4583740234375,7.79164298828125,11.4583740234375ZM17.41661298828125,11.4583740234375C18.93551298828125,11.4583740234375,20.16661298828125,12.6895740234375,20.16661298828125,14.2083740234375C20.16661298828125,14.2083740234375,20.16661298828125,17.4166740234375,20.16661298828125,17.4166740234375C20.16661298828125,18.9355740234375,18.93551298828125,20.1666740234375,17.41661298828125,20.1666740234375C17.41661298828125,20.1666740234375,14.20831298828125,20.1666740234375,14.20831298828125,20.1666740234375C12.68951298828125,20.1666740234375,11.45831298828125,18.9355740234375,11.45831298828125,17.4166740234375C11.45831298828125,17.4166740234375,11.45831298828125,14.2083740234375,11.45831298828125,14.2083740234375C11.45831298828125,12.6895740234375,12.68951298828125,11.4583740234375,14.20831298828125,11.4583740234375C14.20831298828125,11.4583740234375,17.41661298828125,11.4583740234375,17.41661298828125,11.4583740234375C17.41661298828125,11.4583740234375,17.41661298828125,11.4583740234375,17.41661298828125,11.4583740234375ZM7.79164298828125,12.8333740234375C7.79164298828125,12.8333740234375,4.58331298828125,12.8333740234375,4.58331298828125,12.8333740234375C3.85104298828125,12.8333740234375,3.2524729882812498,13.4058740234375,3.2106529882812502,14.1275740234375C3.2106529882812502,14.1275740234375,3.20831298828125,14.2083740234375,3.20831298828125,14.2083740234375C3.20831298828125,14.2083740234375,3.20831298828125,17.4166740234375,3.20831298828125,17.4166740234375C3.20831298828125,18.1489740234375,3.78073298828125,18.7475740234375,4.50251298828125,18.7893740234375C4.50251298828125,18.7893740234375,4.58331298828125,18.7916740234375,4.58331298828125,18.7916740234375C4.58331298828125,18.7916740234375,7.79164298828125,18.7916740234375,7.79164298828125,18.7916740234375C8.52391298828125,18.7916740234375,9.12249298828125,18.2192740234375,9.16431298828125,17.497474023437498C9.16431298828125,17.497474023437498,9.16664298828125,17.4166740234375,9.16664298828125,17.4166740234375C9.16664298828125,17.4166740234375,9.16664298828125,14.2083740234375,9.16664298828125,14.2083740234375C9.16664298828125,13.4761740234375,8.594222988281249,12.8775740234375,7.87244298828125,12.8356740234375C7.87244298828125,12.8356740234375,7.79164298828125,12.8333740234375,7.79164298828125,12.8333740234375C7.79164298828125,12.8333740234375,7.79164298828125,12.8333740234375,7.79164298828125,12.8333740234375ZM17.41661298828125,12.8333740234375C17.41661298828125,12.8333740234375,14.20831298828125,12.8333740234375,14.20831298828125,12.8333740234375C13.47611298828125,12.8333740234375,12.87751298828125,13.4058740234375,12.83561298828125,14.1275740234375C12.83561298828125,14.1275740234375,12.83331298828125,14.2083740234375,12.83331298828125,14.2083740234375C12.83331298828125,14.2083740234375,12.83331298828125,17.4166740234375,12.83331298828125,17.4166740234375C12.83331298828125,18.1489740234375,13.40581298828125,18.7475740234375,14.12751298828125,18.7893740234375C14.12751298828125,18.7893740234375,14.20831298828125,18.7916740234375,14.20831298828125,18.7916740234375C14.20831298828125,18.7916740234375,17.41661298828125,18.7916740234375,17.41661298828125,18.7916740234375C18.14891298828125,18.7916740234375,18.74751298828125,18.2192740234375,18.78931298828125,17.497474023437498C18.78931298828125,17.497474023437498,18.79161298828125,17.4166740234375,18.79161298828125,17.4166740234375C18.79161298828125,17.4166740234375,18.79161298828125,14.2083740234375,18.79161298828125,14.2083740234375C18.79161298828125,13.4761740234375,18.21921298828125,12.8775740234375,17.497412988281248,12.8356740234375C17.497412988281248,12.8356740234375,17.41661298828125,12.8333740234375,17.41661298828125,12.8333740234375C17.41661298828125,12.8333740234375,17.41661298828125,12.8333740234375,17.41661298828125,12.8333740234375ZM7.79164298828125,1.8333740234375C9.31042298828125,1.8333740234375,10.54164298828125,3.0645940234375,10.54164298828125,4.5833740234375C10.54164298828125,4.5833740234375,10.54164298828125,7.7917040234375,10.54164298828125,7.7917040234375C10.54164298828125,9.3104840234375,9.31042298828125,10.5417040234375,7.79164298828125,10.5417040234375C7.79164298828125,10.5417040234375,4.58331298828125,10.5417040234375,4.58331298828125,10.5417040234375C3.06453298828125,10.5417040234375,1.83331298828125,9.3104840234375,1.83331298828125,7.7917040234375C1.83331298828125,7.7917040234375,1.83331298828125,4.5833740234375,1.83331298828125,4.5833740234375C1.83331298828125,3.0645940234375,3.06453298828125,1.8333740234375,4.58331298828125,1.8333740234375C4.58331298828125,1.8333740234375,7.79164298828125,1.8333740234375,7.79164298828125,1.8333740234375C7.79164298828125,1.8333740234375,7.79164298828125,1.8333740234375,7.79164298828125,1.8333740234375ZM17.41661298828125,1.8333740234375C18.93551298828125,1.8333740234375,20.16661298828125,3.0645940234375,20.16661298828125,4.5833740234375C20.16661298828125,4.5833740234375,20.16661298828125,7.7917040234375,20.16661298828125,7.7917040234375C20.16661298828125,9.3104840234375,18.93551298828125,10.5417040234375,17.41661298828125,10.5417040234375C17.41661298828125,10.5417040234375,14.20831298828125,10.5417040234375,14.20831298828125,10.5417040234375C12.68951298828125,10.5417040234375,11.45831298828125,9.3104840234375,11.45831298828125,7.7917040234375C11.45831298828125,7.7917040234375,11.45831298828125,4.5833740234375,11.45831298828125,4.5833740234375C11.45831298828125,3.0645940234375,12.68951298828125,1.8333740234375,14.20831298828125,1.8333740234375C14.20831298828125,1.8333740234375,17.41661298828125,1.8333740234375,17.41661298828125,1.8333740234375C17.41661298828125,1.8333740234375,17.41661298828125,1.8333740234375,17.41661298828125,1.8333740234375ZM7.79164298828125,3.2083740234375C7.79164298828125,3.2083740234375,4.58331298828125,3.2083740234375,4.58331298828125,3.2083740234375C3.85104298828125,3.2083740234375,3.2524729882812498,3.7807940234375,3.2106529882812502,4.5025740234375C3.2106529882812502,4.5025740234375,3.20831298828125,4.5833740234375,3.20831298828125,4.5833740234375C3.20831298828125,4.5833740234375,3.20831298828125,7.7917040234375,3.20831298828125,7.7917040234375C3.20831298828125,8.5239740234375,3.78073298828125,9.1225540234375,4.50251298828125,9.1643740234375C4.50251298828125,9.1643740234375,4.58331298828125,9.1667040234375,4.58331298828125,9.1667040234375C4.58331298828125,9.1667040234375,7.79164298828125,9.1667040234375,7.79164298828125,9.1667040234375C8.52391298828125,9.1667040234375,9.12249298828125,8.594284023437499,9.16431298828125,7.8725040234375C9.16431298828125,7.8725040234375,9.16664298828125,7.7917040234375,9.16664298828125,7.7917040234375C9.16664298828125,7.7917040234375,9.16664298828125,4.5833740234375,9.16664298828125,4.5833740234375C9.16664298828125,3.8511040234375,8.594222988281249,3.2525340234374998,7.87244298828125,3.2107140234375002C7.87244298828125,3.2107140234375002,7.79164298828125,3.2083740234375,7.79164298828125,3.2083740234375C7.79164298828125,3.2083740234375,7.79164298828125,3.2083740234375,7.79164298828125,3.2083740234375ZM17.41661298828125,3.2083740234375C17.41661298828125,3.2083740234375,14.20831298828125,3.2083740234375,14.20831298828125,3.2083740234375C13.47611298828125,3.2083740234375,12.87751298828125,3.7807940234375,12.83561298828125,4.5025740234375C12.83561298828125,4.5025740234375,12.83331298828125,4.5833740234375,12.83331298828125,4.5833740234375C12.83331298828125,4.5833740234375,12.83331298828125,7.7917040234375,12.83331298828125,7.7917040234375C12.83331298828125,8.5239740234375,13.40581298828125,9.1225540234375,14.12751298828125,9.1643740234375C14.12751298828125,9.1643740234375,14.20831298828125,9.1667040234375,14.20831298828125,9.1667040234375C14.20831298828125,9.1667040234375,17.41661298828125,9.1667040234375,17.41661298828125,9.1667040234375C18.14891298828125,9.1667040234375,18.74751298828125,8.594284023437499,18.78931298828125,7.8725040234375C18.78931298828125,7.8725040234375,18.79161298828125,7.7917040234375,18.79161298828125,7.7917040234375C18.79161298828125,7.7917040234375,18.79161298828125,4.5833740234375,18.79161298828125,4.5833740234375C18.79161298828125,3.8511040234375,18.21921298828125,3.2525340234374998,17.497412988281248,3.2107140234375002C17.497412988281248,3.2107140234375002,17.41661298828125,3.2083740234375,17.41661298828125,3.2083740234375C17.41661298828125,3.2083740234375,17.41661298828125,3.2083740234375,17.41661298828125,3.2083740234375Z" fill="#888888" fill-opacity="1"/></g></g></svg>