<svg xmlns="http://www.w3.org/2000/svg" xmlns:xlink="http://www.w3.org/1999/xlink" fill="none" version="1.1" width="22" height="22" viewBox="0 0 22 22"><defs><clipPath id="master_svg0_397_8077/10_335"><rect x="0" y="0" width="22" height="22" rx="0"/></clipPath></defs><g clip-path="url(#master_svg0_397_8077/10_335)"><g><path d="M9.85939,3.2087980114375C12.0116,3.2087979194375,13.7564,4.9196340234375,13.7564,7.030054023437501C13.7564,7.030054023437501,13.7564,8.821704023437501,13.7564,8.821704023437501C13.7564,9.885244023437501,13.3186,10.9042340234375,12.5421,11.6474340234375C12.5421,11.6474340234375,11.738,12.4173040234375,11.738,12.4173040234375C11.7243,12.4305040234375,11.7166,12.4485540234375,11.7166,12.4674440234375C11.7166,12.4674440234375,11.7161,12.5508540234375,11.7161,12.5508540234375C11.7161,12.5508540234375,16.8532,15.1263740234375,16.8532,15.1263740234375C17.5513,15.4468740234375,18.0108,16.1203740234375,18.0464,16.8753740234375C18.0464,16.8753740234375,18.0486,16.969774023437502,18.0486,16.969774023437502C18.0486,16.969774023437502,18.0486,17.1184740234375,18.0486,17.1184740234375C18.0486,18.0424740234375,17.284599999999998,18.7916740234375,16.342100000000002,18.7916740234375C16.342100000000002,18.7916740234375,3.08149,18.7916740234375,3.08149,18.7916740234375C2.182288,18.7916740234375,1.4372812,18.1076740234375,1.37843616,17.2278740234375C1.37843616,17.2278740234375,1.37628858,17.1781740234375,1.37628858,17.1781740234375C1.37628858,17.1781740234375,1.375,17.0946740234375,1.375,17.0946740234375C1.375,17.0946740234375,1.375429561,16.9696740234375,1.375429561,16.9696740234375C1.375429561,16.2241740234375,1.790776,15.5384740234375,2.45782,15.1821740234375C2.45782,15.1821740234375,2.49777,15.1619740234375,2.49777,15.1619740234375C2.49777,15.1619740234375,2.5879700000000003,15.1176740234375,2.5879700000000003,15.1176740234375C2.5879700000000003,15.1176740234375,7.70703,12.5511340234375,7.70703,12.5511340234375C7.70703,12.5511340234375,7.70746,12.4673540234375,7.70746,12.4673540234375C7.70757,12.4564440234375,7.70507,12.4456240234375,7.70016,12.4357240234375C7.70016,12.4357240234375,7.69457,12.4282040234375,7.69457,12.4282040234375C7.69457,12.4282040234375,7.6804,12.4126240234375,7.6804,12.4126240234375C7.6804,12.4126240234375,6.88149,11.6473240234375,6.88149,11.6473240234375C6.17349,10.9679440234375,5.74499,10.0569940234375,5.67755,9.0878840234375C5.67755,9.0878840234375,5.66981,8.9472140234375,5.66981,8.9472140234375C5.66981,8.9472140234375,5.66724,8.8090740234375,5.66724,8.8090740234375C5.66724,8.8090740234375,5.66724,7.0296240234375,5.66724,7.0296240234375C5.66724,4.9667440234375,7.33807,3.2757543234375,9.4599,3.2096374634375C9.4599,3.2096374634375,9.57458,3.2083740234375,9.57458,3.2083740234375C9.57458,3.2083740234375,9.85939,3.2087980114375,9.85939,3.2087980114375C9.85939,3.2087980114375,9.85939,3.2087980114375,9.85939,3.2087980114375ZM9.57419,4.4722940234375C9.57419,4.4722940234375,9.47927,4.4735640234375005,9.47927,4.4735640234375005C8.072289999999999,4.5183440234375,6.95536,5.6497140234375,6.95539,7.030054023437501C6.95539,7.030054023437501,6.95539,8.8094940234375,6.95539,8.8094940234375C6.95539,8.8094940234375,6.95754,8.9248940234375,6.95754,8.9248940234375C6.98454,9.6121640234375,7.27941,10.2630840234375,7.78135,10.7434940234375C7.78135,10.7434940234375,8.60819,11.5361340234375,8.60819,11.5361340234375C8.60819,11.5361340234375,8.678619999999999,11.6119440234375,8.678619999999999,11.6119440234375C8.88308,11.8515840234375,8.995619999999999,12.1544040234375,8.995619999999999,12.4677140234375C8.995619999999999,12.4677140234375,8.995190000000001,12.5928440234375,8.995190000000001,12.5928440234375C8.995190000000001,12.5928440234375,8.99003,12.6821240234375,8.99003,12.6821240234375C8.94684,13.1204740234375,8.67088,13.5039740234375,8.264140000000001,13.6908740234375C8.264140000000001,13.6908740234375,3.1343199999999998,16.2624740234375,3.1343199999999998,16.2624740234375C3.1343199999999998,16.2624740234375,3.0741899999999998,16.2919740234375,3.0741899999999998,16.2919740234375C2.82164,16.4266740234375,2.66357,16.6870740234375,2.66357,16.9699740234375C2.66357,16.9699740234375,2.66357,17.0985740234375,2.66357,17.0985740234375C2.66357,17.0985740234375,2.6644300000000003,17.1464740234375,2.6644300000000003,17.1464740234375C2.6793199999999997,17.361474023437502,2.86138,17.5283740234375,3.08106,17.5285740234375C3.08106,17.5285740234375,16.3418,17.5285740234375,16.3418,17.5285740234375C16.572499999999998,17.5285740234375,16.759700000000002,17.345074023437498,16.759700000000002,17.1186740234375C16.759700000000002,17.1186740234375,16.759700000000002,16.9699740234375,16.759700000000002,16.9699740234375C16.759700000000002,16.6706740234375,16.5831,16.3976740234375,16.3061,16.2708740234375C16.3061,16.2708740234375,11.15913,13.6908740234375,11.15913,13.6908740234375C10.71272,13.4857740234375,10.42755,13.0459440234375,10.42762,12.5625040234375C10.42762,12.5625040234375,10.42762,12.4677140234375,10.42762,12.4677140234375C10.42762,12.1084940234375,10.5754,11.7644040234375,10.83738,11.5133840234375C10.83738,11.5133840234375,11.6419,10.7434940234375,11.6419,10.7434940234375C12.1699,10.2381340234375,12.4678,9.5452340234375,12.4679,8.821704023437501C12.4679,8.821704023437501,12.4679,7.0300440234375,12.4679,7.0300440234375C12.4679,5.6174340234375,11.30002,4.4722940234375,9.85937,4.4722940234375C9.85937,4.4722940234375,9.57419,4.4722940234375,9.57419,4.4722940234375C9.57419,4.4722940234375,9.57419,4.4722940234375,9.57419,4.4722940234375ZM17.3339,7.4402840234375C17.3339,7.4402840234375,17.3356,7.5430540234375,17.3356,7.5430540234375C17.3356,7.5430540234375,17.3356,8.894584023437499,17.3356,8.894584023437499C17.3356,9.7197140234375,17.0063,10.511554023437501,16.4182,11.1010340234375C16.4182,11.1010340234375,16.328,11.187794023437501,16.328,11.187794023437501C16.328,11.187794023437501,15.7843,11.6919340234375,15.7843,11.6919340234375C15.7843,11.6919340234375,19.5074,13.5572740234375,19.5074,13.5572740234375C20.1272,13.8330740234375,20.5497,14.4122740234375,20.616,15.0764740234375C20.616,15.0764740234375,20.6229,15.1665740234375,20.6229,15.1665740234375C20.6229,15.1665740234375,20.625,15.2579740234375,20.625,15.2579740234375C20.625,15.9890740234375,20.0624,16.602074023437503,19.3211,16.6785740234375C19.2094,16.1044740234375,19.0823,15.6858740234375,18.9401,15.4222740234375C18.9401,15.4222740234375,19.1681,15.4226740234375,19.1681,15.4226740234375C19.2607,15.4228740234375,19.3359,15.3495740234375,19.3362,15.2588740234375C19.3362,15.0406740234375,19.2172,14.8414740234375,19.0277,14.7348740234375C19.0277,14.7348740234375,18.9745,14.7079740234375,18.9745,14.7079740234375C18.9745,14.7079740234375,17.7073,14.1435740234375,17.7073,14.1435740234375C17.6075,14.0846740234375,17.5046,14.0307740234375,17.399,13.9822740234375C17.399,13.9822740234375,14.778,12.5629540234375,14.778,12.5629540234375C14.5594,12.3563340234375,14.4361,12.0713740234375,14.4363,11.7736940234375C14.4363,11.4397140234375,14.5652,11.119624023437499,14.7942,10.8753440234375C14.7942,10.8753440234375,14.8594,10.8109040234375,14.8594,10.8109040234375C14.8594,10.8109040234375,15.4435,10.2697040234375,15.4435,10.2697040234375C15.8022,9.9371140234375,16.0171,9.482334023437499,16.0441,8.9990440234375C16.0441,8.9990440234375,16.0471,8.894584023437499,16.0471,8.894584023437499C16.0471,8.894584023437499,16.0471,7.5426340234375,16.0471,7.5426340234375C16.0471,6.8114840234375,15.5983,6.1525740234375,14.9098,5.872584023437501C14.8368,5.5642840234375,14.6478,5.0980540234375,14.3437,4.4747240234375C15.9771,4.5469040234375,17.2793,5.838224023437499,17.3339,7.4402840234375C17.3339,7.4402840234375,17.3339,7.4402840234375,17.3339,7.4402840234375Z" fill="#888888" fill-opacity="1"/></g></g></svg>